<svg width="207" height="366" viewBox="0 0 207 366" fill="none" xmlns="http://www.w3.org/2000/svg">
<path d="M158.667 24.8777L86.996 80.8519L48.1991 53.6052V77.0019L86.996 106.026L139.416 65.1555V126.164L86.996 165.85L31.9103 126.164V41.4626L9.10596 24.8777V136.53L86.996 191.616L158.667 136.53V24.8777Z" fill="white"/>
<path d="M198.056 0.00012207L174.363 17.1774V146.599L86.996 213.828L9.69824 158.446V185.989L86.996 241.667L198.056 155.188V0.00012207Z" fill="white"/>
<path d="M22.3572 352.491H0.347992V312.753H22.3572C26.4004 312.753 30.0849 313.576 33.4107 315.222C36.7528 316.853 39.4184 319.16 41.4074 322.143C43.3964 325.127 44.3908 328.624 44.3908 332.634C44.3908 336.645 43.3964 340.142 41.4074 343.125C39.4184 346.092 36.7528 348.399 33.4107 350.046C30.0849 351.676 26.4004 352.491 22.3572 352.491ZM22.3572 343.981C24.6885 343.981 26.7916 343.517 28.6665 342.587C30.5414 341.642 32.0331 340.321 33.1417 338.626C34.2503 336.93 34.8046 334.933 34.8046 332.634C34.8046 330.335 34.2503 328.338 33.1417 326.643C32.0331 324.947 30.5414 323.627 28.6665 322.681C26.7916 321.736 24.6885 321.263 22.3572 321.263H9.93422V343.981H22.3572ZM101.299 352.491H92.0797L72.2225 312.753H83.3494L96.8483 341.854L111.13 312.753H121.181L101.299 352.491ZM201.737 352.491H192.15V330.409L182.173 348.187H172.953L162.976 330.409V352.491H153.39V312.753H163.856L177.551 338.552L191.27 312.753H201.737V352.491Z" fill="white"/>
</svg>
