<svg width="1615" height="271" viewBox="0 0 1615 271" fill="none" xmlns="http://www.w3.org/2000/svg">
<path fill-rule="evenodd" clip-rule="evenodd" d="M295.809 66.411C297.803 67.4351 299.655 68.6662 301.288 70.1173L304.988 73.1443C312.051 78.8619 317.096 89.9608 317.096 99.0417V177.743C317.096 197.923 297.925 214.403 278.418 214.403C257.902 214.403 239.403 197.586 239.403 176.734V153.479L197.706 147.522L198.035 180.097L198.371 186.824L200.053 194.223L202.071 201.622L205.098 209.358L208.797 216.084L213.17 222.811L217.878 228.865L223.596 234.582L229.314 239.291L235.031 243.327L242.094 247.363L249.493 250.726L256.556 253.081L262.946 254.426L271.018 255.771C273.036 256.108 276.4 256.108 278.418 256.108H281.108L288.171 255.435L295.234 254.09L302.633 252.072L309.36 249.717L315.75 246.69L321.131 243.327L327.858 238.618L333.576 233.573L338.957 228.192L343.666 222.138L347.365 216.084L351.401 208.349L354.092 201.958C355.101 199.604 356.782 192.541 357.119 189.851L358.464 181.106V146.128C358.697 141.24 361.99 138.607 363.996 137.003C364.889 136.29 365.527 135.78 365.527 135.365C365.527 134.693 364.854 131.666 364.182 131.666H358.464V96.6873L357.455 88.9518L355.773 80.8799L353.419 73.4806L351.065 67.0903L347.702 60.7001L343.666 54.6461L338.456 48.1339L295.809 66.411Z" fill="#FE0000"/>
<mask id="mask0_9_571" style="mask-type:alpha" maskUnits="userSpaceOnUse" x="133" y="0" width="211" height="117">
<path d="M343.329 42.0412L150.5 116.594L133.123 56.0549L273.26 0L343.329 42.0412Z" fill="#D9D9D9"/>
</mask>
<g mask="url(#mask0_9_571)">
<path d="M261.264 20.2283L269 19.5556H273.709L280.772 20.2283L288.171 21.2373L294.561 22.9189L301.288 25.2733L308.351 28.6365L313.396 31.3272L319.786 36.0358L326.176 41.0807L331.557 46.7983L336.939 53.5249L340.975 59.5789L344.338 65.9691L346.692 72.3594L349.046 79.7586L350.728 87.8305L351.737 95.5661V130.544H357.455C358.127 130.544 358.8 133.571 358.8 134.244C358.8 135.589 352.073 137.944 351.737 145.007V179.985L350.392 188.729C350.055 191.42 348.374 198.483 347.365 200.837L344.674 207.228L340.638 214.963L336.939 221.017L332.23 227.071L326.849 232.452L321.131 237.497L314.404 242.206L309.023 245.569L302.633 248.596L295.906 250.95L288.507 252.968L281.444 254.314L274.381 254.986C274.045 254.986 272.363 254.986 271.691 254.986C269.673 254.986 266.309 254.986 264.291 254.65L256.219 253.305L249.829 251.959L242.766 249.605L235.367 246.242L228.304 242.206L222.587 238.17L216.869 233.461L211.151 227.744L206.443 221.69L202.07 214.963L198.371 208.237L195.344 200.501L193.326 193.102L191.644 185.702L191.308 178.976L190.972 145.679C190.972 140.971 188.617 137.271 184.581 135.253C184.245 135.253 183.909 134.917 183.909 134.58V134.244C183.909 133.235 184.581 130.544 185.59 130.544H190.972V98.2568L191.308 92.5392L192.653 84.1309L194.671 75.7227L197.698 67.9871L201.398 60.5879L205.77 53.8613L210.479 47.471L216.196 41.7534L220.232 38.0538L225.613 34.0178L233.013 29.3092L240.076 25.9459L247.475 23.2553L253.865 21.5736L261.264 20.2283ZM271.691 213.281C291.198 213.281 310.369 196.801 310.369 176.622V97.9204C310.369 88.8395 305.324 77.7407 298.261 72.0231L294.561 68.9961C288.507 63.6148 279.426 61.2605 271.354 61.2605C251.175 61.2605 232.676 78.077 232.676 98.9294V175.613C232.676 196.465 251.175 213.281 271.691 213.281Z" fill="#FE0000"/>
</g>
<mask id="mask1_9_571" style="mask-type:alpha" maskUnits="userSpaceOnUse" x="160" y="82" width="101" height="68">
<path d="M258.686 82.9613L160.59 125.002V139.016L260.928 149.106L258.686 82.9613Z" fill="#D9D9D9"/>
</mask>
<g mask="url(#mask1_9_571)">
<path d="M274.718 19.1072L282.453 18.4345H287.162L294.225 19.1072L301.624 20.1162L308.014 21.7978L314.741 24.1522L321.804 27.5154L326.849 30.2061L333.239 34.9147L339.629 39.9596L345.011 45.6773L350.392 52.4038L354.428 58.4578L357.791 64.848L360.146 71.2383L362.5 78.6375L364.181 86.7095L365.19 94.445V129.423H370.908C371.581 129.423 372.253 132.45 372.253 133.123C372.253 134.468 365.527 136.823 365.19 143.885V178.864L363.845 187.608C363.509 190.299 361.827 197.362 360.818 199.716L358.128 206.106L354.092 213.842L350.392 219.896L345.683 225.95L340.302 231.331L334.584 236.376L327.858 241.085L322.477 244.448L316.086 247.475L309.36 249.829L301.96 251.847L294.898 253.193L287.835 253.865C287.498 253.865 285.817 253.865 285.144 253.865C283.126 253.865 279.763 253.865 277.745 253.529L269.673 252.184L263.283 250.838L256.22 248.484L248.82 245.121L241.757 241.085L236.04 237.049L230.322 232.34L224.605 226.623L219.896 220.569L215.524 213.842L211.824 207.115L208.797 199.38L206.779 191.981L205.098 184.581L204.761 177.855L204.425 144.558C204.425 139.85 202.071 136.15 198.035 134.132C197.698 134.132 197.362 133.796 197.362 133.459V133.123C197.362 132.114 198.035 129.423 199.044 129.423H204.425V97.1357L204.761 91.4181L206.107 83.0098L208.125 74.6016L211.152 66.866L214.851 59.4668L219.223 52.7402L223.932 46.3499L229.65 40.6323L233.686 36.9327L239.067 32.8967L246.466 28.1881L253.529 24.8248L260.928 22.1342L267.319 20.4525L274.718 19.1072ZM285.144 212.16C304.651 212.16 323.822 195.68 323.822 175.5V96.7993C323.822 87.7184 318.777 76.6196 311.714 70.902L308.014 67.875C301.96 62.4937 292.88 60.1394 284.808 60.1394C264.628 60.1394 246.13 76.9559 246.13 97.8083V174.491C246.13 195.344 264.628 212.16 285.144 212.16Z" fill="#FE0000"/>
</g>
<path fill-rule="evenodd" clip-rule="evenodd" d="M14.623 73.9574L56.3279 50.5715V217.307H160.59C163.953 217.307 167.653 216.298 169.671 213.271C169.938 213.004 170.152 212.525 170.376 212.024C170.717 211.262 171.08 210.447 171.689 210.244H172.025C173.034 210.244 175.389 210.917 175.389 211.926V254.976C175.389 256.658 173.707 259.012 172.025 259.012H52.9672L14.623 174.37V73.9574Z" fill="white"/>
<path fill-rule="evenodd" clip-rule="evenodd" d="M49.601 45.8541L7.89617 71.8749V38.0436C7.89617 35.6893 7.22351 33.335 5.87819 31.317C5.46594 30.7673 4.54835 30.2738 3.6072 29.7676C2.24491 29.0349 0.833252 28.2756 0.833252 27.2811C0.833252 26.2721 1.50591 23.5814 2.5149 23.5814H45.9014C47.5831 23.5814 49.601 25.9357 49.601 27.6174V45.8541Z" fill="white"/>
<path fill-rule="evenodd" clip-rule="evenodd" d="M47.383 265.127H6.99952C5.99053 265.127 5.31787 262.436 5.31787 261.427C5.31787 260.948 6.37963 260.242 7.5668 259.452C8.87966 258.578 10.3459 257.602 10.6991 256.719C12.3808 253.692 12.3808 250.329 12.3808 246.965V244.275V180.913L47.383 265.127Z" fill="white"/>
<path fill-rule="evenodd" clip-rule="evenodd" d="M535.136 255.637L532.907 257.086L525.508 260.785L518.445 263.812L510.373 266.167L503.31 267.512L495.574 268.185H492.884C489.857 268.185 486.157 267.848 483.466 267.512L476.067 266.503L469.677 264.821L462.278 262.131L455.551 259.104L450.506 256.077L443.443 251.368L437.726 246.323L432.344 240.942L427.299 234.215L422.927 227.825L419.564 221.435L418.248 217.926L535.136 255.637Z" fill="white"/>
<path fill-rule="evenodd" clip-rule="evenodd" d="M406.559 160.461V179.118L407.232 186.854L408.577 195.262L410.931 202.662L412.642 207.224L529.53 244.936L534.028 242.012L540.082 237.303L545.8 231.586L550.508 225.868L555.553 219.142L557.907 214.433L561.271 207.034L563.961 199.635L565.643 193.917L566.988 185.509L567.325 177.773C567.325 177.437 567.325 176.428 566.652 176.428H565.979L508.467 191.899C508.131 191.899 507.794 191.899 507.794 192.235L507.458 194.926V195.262C507.458 196.377 508.843 196.799 510.465 197.293C512.76 197.993 515.53 198.837 515.53 201.989C515.53 204.385 513.129 206.248 511.416 207.577C511.205 207.74 511.005 207.896 510.821 208.043C503.758 213.088 495.686 215.778 486.942 215.778C466.762 215.778 447.928 198.962 447.928 178.446V110.792L406.559 160.461ZM487.101 63.7578C499.82 63.8106 511.523 70.191 518.557 80.5739C520.575 83.6009 522.593 87.3005 522.593 91.0002C522.593 93.5589 520.971 95.5768 519.783 97.0541C519.098 97.907 518.557 98.5796 518.557 99.0721C518.557 100.081 519.902 102.435 520.911 102.435H521.247L564.298 91.0002C565.307 90.6638 566.316 90.3275 566.316 88.9822C566.316 88.9822 566.316 88.6458 565.979 88.6458L564.298 81.5829L561.943 73.8474L558.58 66.4481L554.544 59.3852L549.835 52.9949L544.791 46.941L539.073 41.5597L532.683 36.5148L525.956 32.4788L519.902 29.1155L516.941 27.9309L487.101 63.7578Z" fill="white"/>
<path fill-rule="evenodd" clip-rule="evenodd" d="M514.528 10.4458C511.337 9.49254 506.231 8.37716 504.095 8.11009L496.359 7.1011C494.677 6.76477 491.65 6.76477 489.969 6.76477H487.951L480.215 7.43744L472.816 8.78276L466.762 10.4644L459.363 13.155L452.636 16.182L445.573 20.5543L439.519 24.9266L435.147 28.9625L429.429 34.6801L424.385 41.4067L420.349 47.797L416.985 54.1872L414.631 60.5775L412.613 66.9678L410.595 75.7123L409.922 84.1206V144.094L451.291 91.2399V85.8022C451.291 67.3087 466.595 51.8212 484.393 48.9474L514.528 10.4458Z" fill="white"/>
<path fill-rule="evenodd" clip-rule="evenodd" d="M616.765 126.33V239.841V240.178C616.765 243.541 616.765 247.241 615.083 250.268C614.548 251.338 613.065 252.409 611.792 253.329C610.665 254.143 609.702 254.839 609.702 255.313C609.702 256.322 610.374 259.012 611.383 259.012H654.097C656.451 259.012 658.133 256.994 658.133 254.976L658.469 157.104C658.469 152.396 659.815 147.014 662.842 143.651L664.564 141.546L616.765 126.33ZM682.785 147.345L729.635 162.259L746.518 225.359L714.289 258.409C713.112 257.95 712.152 257.219 711.946 255.985L682.785 147.345Z" fill="white"/>
<path fill-rule="evenodd" clip-rule="evenodd" d="M745.397 232.29L751.521 255.18C752.53 258.207 754.884 260.225 757.575 261.234C757.911 261.57 757.911 261.907 757.911 262.243C757.911 263.588 757.575 265.606 756.23 265.943H753.875H751.521H715.534C714.75 265.812 713.915 265.631 713.168 265.339L745.397 232.29Z" fill="white"/>
<path fill-rule="evenodd" clip-rule="evenodd" d="M625.734 115.248V35.9951C625.734 33.3044 625.061 30.6138 623.38 28.2595C622.974 27.7184 622.132 27.2316 621.272 26.7336C619.993 25.9936 618.671 25.2288 618.671 24.2236C618.671 23.5509 619.344 20.8603 620.353 20.8603H663.403C665.421 20.8603 667.439 22.8782 667.439 24.8962V85.7719L732.35 20.8603H732.687C733.359 20.5239 734.705 20.5239 735.377 20.5239H744.458H753.875C756.23 20.5239 762.956 20.608 769.683 20.6921C776.409 20.7762 783.136 20.8603 785.49 20.8603C786.163 21.1966 786.499 22.2056 786.499 22.8782C786.499 23.8872 786.163 25.5689 785.154 26.5779L720.579 91.4895V91.8258L737.786 156.141L690.282 138.804L686.609 125.122L677.568 134.164L625.734 115.248Z" fill="white"/>
<path fill-rule="evenodd" clip-rule="evenodd" d="M817.749 23.5814L898.977 65.2863H854.886V101.946V106.318V110.691C854.886 113.045 855.222 116.072 857.913 116.072C858.586 116.072 859.595 116.072 860.267 115.736L932.578 96.2286H933.587C934.932 96.2286 937.623 97.2376 937.623 98.9193V134.234C937.623 135.915 936.278 137.933 934.596 138.606L859.258 158.786C855.895 159.795 855.222 162.486 854.886 165.512V170.221V174.593V217.307H958.812C963.857 217.307 967.556 215.289 969.574 210.917C969.574 210.709 969.703 210.63 969.88 210.52C969.99 210.452 970.119 210.373 970.247 210.244H970.583C971.592 210.244 973.947 210.917 973.947 211.926V254.976C973.947 256.658 972.265 259.012 970.583 259.012H834.473L813.435 181.585C813.409 167.531 813.379 152.23 813.349 136.944C813.265 94.224 813.181 51.6231 813.181 36.6983C813.181 35.6893 812.508 34.344 812.172 33.6713C811.489 32.0781 808.958 29.8689 807.393 28.5027C806.645 27.85 806.118 27.3898 806.118 27.2811C806.118 26.2721 806.791 23.5814 807.8 23.5814H817.749Z" fill="white"/>
<path fill-rule="evenodd" clip-rule="evenodd" d="M829.988 259.012H803.315C802.306 259.012 801.634 256.322 801.634 255.313C801.634 254.976 801.97 254.64 802.306 254.304C808.024 251.949 809.033 246.568 809.033 240.851V238.16C809.033 228.383 808.998 207.028 808.95 181.585L829.988 259.012Z" fill="white"/>
<path fill-rule="evenodd" clip-rule="evenodd" d="M830.618 20.5239H978.094C980.112 20.5239 981.793 22.5419 981.793 24.5599V67.6101C981.793 68.6191 979.439 69.2917 978.43 69.2917C977.572 69.2917 976.714 67.7866 975.943 66.4346C975.505 65.6669 975.096 64.9485 974.73 64.5831C972.376 62.5651 969.013 62.2288 965.986 62.2288H903.61L830.618 20.5239Z" fill="white"/>
<path fill-rule="evenodd" clip-rule="evenodd" d="M1028.99 121.355V193.534L1070.7 195.965V105.548L1028.99 121.355ZM1143.49 77.9571L1182.77 63.0726L1184.71 66.9679L1186.73 73.3581L1188.41 79.0757L1189.42 85.466L1189.76 92.1926V197.127V200.827L1189.42 202.883L1147.85 200.461C1148.2 199.027 1148.39 197.569 1148.39 196.118V92.8652C1148.39 87.5783 1146.55 82.3855 1143.49 77.9571Z" fill="white"/>
<path fill-rule="evenodd" clip-rule="evenodd" d="M1187.49 213.694L1186.62 218.041L1184.6 224.095L1182.25 229.812L1179.89 233.848L1176.53 238.893L1173.17 243.266L1169.13 247.638C1165.43 251.337 1160.39 255.037 1155.68 257.391L1149.62 260.082L1143.91 262.1L1139.53 263.445L1133.48 264.454L1128.1 265.127H1022.15C1021.48 265.127 1020.81 262.436 1020.81 261.427C1020.81 261.091 1021.14 260.755 1021.48 260.418C1025.85 258.4 1027.87 254.701 1027.87 249.656V200.093L1069.58 203.647V223.422H1126.75C1134.76 223.422 1142.21 217.462 1145.5 210.116L1187.49 213.694Z" fill="white"/>
<path fill-rule="evenodd" clip-rule="evenodd" d="M1186.19 55.5518L1185.05 53.2701L1182.36 48.5615L1177.99 42.8439L1173.61 37.4626L1168.91 33.0903L1163.52 29.0544L1158.14 25.3547L1151.75 21.9914L1146.37 19.9735L1139.98 17.9555L1133.93 16.9465L1126.19 15.9375H1026.97C1025.97 15.9375 1025.29 18.6281 1025.29 19.6371C1025.29 19.9188 1025.84 20.3316 1026.64 20.9266C1028.69 22.463 1032.36 25.2146 1032.36 30.0633V106.637L1074.06 92.7878V57.6424H1124.17C1132.66 57.6424 1140.67 62.2696 1145.86 68.946L1186.19 55.5518Z" fill="white"/>
<path fill-rule="evenodd" clip-rule="evenodd" d="M1342.9 184.449L1384.61 135.139V240.483C1384.61 245.528 1386.62 249.228 1391 251.246L1391.67 251.918V252.255C1391.67 253.264 1391 255.954 1389.99 255.954H1337.52C1336.51 255.954 1335.84 253.264 1335.84 252.255C1335.84 251.397 1337.34 250.539 1338.7 249.768C1339.46 249.33 1340.18 248.921 1340.55 248.555C1342.56 246.201 1342.9 242.501 1342.9 239.811V184.449Z" fill="white"/>
<path fill-rule="evenodd" clip-rule="evenodd" d="M1335.05 175.28V35.8115C1335.05 30.0939 1333.71 26.0579 1328.66 23.3673C1328.33 23.3673 1327.99 23.031 1327.99 22.6946C1327.99 21.6856 1328.66 18.995 1329.67 18.995H1382.14C1382.48 18.995 1382.48 19.3313 1382.48 19.3313C1382.81 19.6677 1383.48 21.3493 1383.48 21.6856C1383.82 22.022 1383.82 22.3583 1383.82 22.6946C1383.82 23.4634 1382.5 24.2321 1381.18 25.0009C1380.2 25.5774 1379.21 26.154 1378.78 26.7306C1377.43 29.0849 1376.76 31.7755 1376.76 34.4662V130.357L1335.05 175.28Z" fill="white"/>
<path fill-rule="evenodd" clip-rule="evenodd" d="M1556.25 147.272L1597.61 163.936V213.152L1568.6 259.012H1552.55C1550.86 259.012 1547.16 258.676 1546.16 256.994L1478.55 139.615L1478.22 139.279V255.313C1478.22 256.994 1476.54 259.012 1474.85 259.012H1431.13C1431.13 259.012 1431.13 258.676 1430.79 258.676C1430.7 258.382 1430.57 258.088 1430.44 257.785C1430.12 257.05 1429.79 256.266 1429.79 255.313V254.976C1429.79 254.808 1429.87 254.724 1429.95 254.64C1430.04 254.556 1430.12 254.472 1430.12 254.304C1435.17 252.286 1436.85 247.913 1436.85 242.532V99.1783L1520.28 132.787L1556.25 190.737V147.272Z" fill="white"/>
<path fill-rule="evenodd" clip-rule="evenodd" d="M1596.49 227.773V254.12C1596.49 259.501 1597.84 263.873 1603.22 266.228C1603.56 266.564 1603.56 266.9 1603.56 267.237V268.246C1603.22 268.582 1602.55 269.927 1602.55 270.264C1602.55 270.6 1602.21 270.936 1602.21 270.936H1565.22L1596.49 227.773Z" fill="white"/>
<path fill-rule="evenodd" clip-rule="evenodd" d="M1607.7 158.283V36.8205C1607.7 33.4572 1608.04 30.0939 1609.72 27.4032C1610.23 26.3942 1611.49 25.5534 1612.62 24.7967C1613.76 24.0399 1614.77 23.3673 1614.77 22.6946C1614.77 21.6856 1614.09 18.995 1613.42 18.995H1570.04C1568.02 18.995 1566.34 21.013 1566.34 23.031V139.754L1607.7 158.283ZM1526.46 121.895L1446.94 86.2773V46.574V33.4572C1446.94 29.0849 1444.25 25.3853 1440.55 23.7036C1440.42 23.5751 1440.29 23.4957 1440.18 23.4279C1440 23.3182 1439.88 23.2388 1439.88 23.031V22.6946C1439.88 21.6856 1440.55 18.995 1441.56 18.995H1484.61C1486.29 18.995 1488.31 21.013 1488.31 22.6946L1488.98 34.1298L1491 45.9014L1494.7 60.0272L1501.42 77.18L1513.53 101.059L1526.46 121.895Z" fill="white"/>
</svg>
